<svg id="Capa_1" enable-background="new 0 0 512 512" height="512" viewBox="0 0 512 512" width="512" xmlns="http://www.w3.org/2000/svg"><g><g><path d="m479.107 130.465c-10.906-19.383-34.605-29.787-66.35-31.733-54.437-3.337-129.917 21.46-207.747 65.253-123.219 69.33-194.024 162.79-164.417 215.41 13.327 23.685 38.055 36.104 80.927 33.925 52.374-2.663 120.333-23.919 188.089-62.044 123.219-69.331 199.106-168.192 169.498-220.811zm-408.741 233.339c-1.93-.924-3.079-2.965-2.866-5.094.859-8.62 6.905-28.642 31.198-58.071 29.445-35.671 74.155-71.349 125.894-100.461s105.441-48.808 151.215-55.459c37.764-5.488 68.882-.051 76.695 3.689 1.93.924 2.115 3.804 1.903 5.934-.859 8.62-10.74 32.134-35.033 61.564-29.445 35.671-78.706 71.145-130.445 100.257s-106.957 44.467-152.73 51.119c-37.766 5.487-58.018.263-65.831-3.478z" fill="#88f2a9"/></g><g><path d="m160.672 367.281c45.773-6.652 99.476-26.348 151.215-55.459s96.449-64.79 125.894-100.461c24.293-29.429 30.339-49.451 31.198-58.071.212-2.13-.936-4.17-2.866-5.094-6.498-3.111-21.611-7.242-48.233-5.39 11.939.996 19.604 3.402 23.756 5.39 1.93.924 3.079 2.965 2.866 5.094-.859 8.62-6.905 28.642-31.198 58.071-29.445 35.671-74.155 71.349-125.894 100.461s-105.441 48.808-151.215 55.459c-6.357.924-12.207 1.538-17.595 1.913 10.526.878 24.376.659 42.072-1.913z" fill="#77d192"/></g><g><path d="m57.37 381.535c-29.607-52.62 46.28-151.48 169.498-220.811 67.043-37.723 134.279-58.925 186.425-61.947-54.46-3.515-132.81 18.007-210.902 61.947-123.219 69.331-199.106 168.192-169.498 220.811 13.498 23.989 46.598 34.22 90.291 31.688-31.471-2.031-54.971-12.416-65.814-31.688z" fill="#77d192"/></g><g><path d="m202.661 347.315c123.219 69.331 246.839 86.84 276.446 34.22s-46.28-151.48-169.498-220.812-239.594-78.904-269.202-26.284c-29.607 52.619 39.035 143.545 162.254 212.876zm173.144 19.966c-45.773-6.652-99.476-26.348-151.215-55.459s-96.449-64.79-125.894-100.461c-24.293-29.429-30.339-49.451-31.198-58.071-.212-2.129.936-4.17 2.866-5.094 7.813-3.741 28.065-8.965 65.829-3.477 45.773 6.652 99.841 23.841 151.58 52.953s98.442 60.198 127.887 95.869c24.293 29.429 37.858 59.47 38.717 68.09.212 2.129-.936 4.17-2.866 5.094-7.813 3.739-37.942 6.044-75.706.556z" fill="#365f7e"/></g><g><path d="m441.634 363.804c-7.813 3.741-28.065 8.965-65.829 3.477-2.713-.394-5.455-.838-8.221-1.323 10.587 2.638 20.903 4.699 30.844 6.144 37.764 5.488 58.016.263 65.829-3.477 1.93-.924 3.079-2.965 2.866-5.094-.859-8.62-6.905-28.642-31.198-58.071-29.445-35.671-74.155-71.349-125.894-100.461-48.673-27.387-99.081-46.437-142.994-54.137 38.163 9.509 79.868 26.526 120.371 49.315 51.739 29.112 96.449 64.79 125.894 100.461 24.293 29.43 30.339 49.451 31.198 58.071.213 2.13-.935 4.171-2.866 5.095z" fill="#2c4d66"/></g><g><path d="m225.014 356.098c-123.219-69.332-199.106-168.193-169.499-220.812 16.759-29.786 63.734-38.362 123.691-27.629-70.6-17.34-127.498-10.632-146.313 22.808-29.607 52.62 46.28 151.48 169.498 220.812 53.47 30.086 107.061 49.659 153.025 57.888-40.493-9.946-85.489-27.797-130.402-53.067z" fill="#2c4d66"/></g><g><path d="m256 0c-60.377 0-95.989 112.398-95.989 253.783s35.612 258.217 95.989 258.217 109.323-114.615 109.323-256-48.946-256-109.323-256zm2.923 470.647c-1.752 1.229-4.094 1.229-5.845 0-7.091-4.975-21.576-20.063-35.311-55.666-16.649-43.154-25.818-99.615-25.818-158.981s9.169-115.828 25.818-158.981c13.736-35.603 28.22-50.69 35.311-55.666 1.752-1.229 4.094-1.229 5.845 0 1.89 1.326 4.306 3.371 7.093 6.332 7.667 8.145 23.861 22.195 33.935 48.307 16.649 43.154 32.883 100.64 32.883 160.007s-13.14 120.481-29.789 163.635c-13.735 35.603-37.031 46.038-44.122 51.013z" fill="#b3dafe"/></g><g><path d="m266.013 464.312c2.784 2.957 5.202 5.009 7.091 6.335 1.752 1.229 4.094 1.229 5.845 0 7.091-4.975 21.576-20.063 35.311-55.665 16.649-43.154 25.818-99.615 25.818-158.981s-9.169-115.827-25.818-158.981c-13.736-35.603-28.22-50.69-35.311-55.665-1.752-1.229-4.094-1.229-5.845 0-1.889 1.325-4.306 3.378-7.091 6.335 7.668 8.144 18.144 23.212 28.221 49.331 16.649 43.154 25.818 99.615 25.818 158.981s-9.169 115.827-25.818 158.981c-10.077 26.117-20.553 41.186-28.221 49.329z" fill="#8ac9fe"/></g><g><path d="m166.704 256c0-133.478 43.627-243.077 99.309-254.921-3.298-.701-6.636-1.079-10.013-1.079-60.377 0-109.323 114.615-109.323 256s48.946 256 109.323 256c3.377 0 6.715-.378 10.013-1.08-55.683-11.843-99.309-121.442-99.309-254.92z" fill="#8ac9fe"/></g><g><path d="m256 288.925c-18.184 0-22.186-14.717-22.186-32.901 0-18.184 4.003-32.949 22.186-32.949 18.184 0 32.925 14.741 32.925 32.925 0 18.184-14.741 32.925-32.925 32.925z" fill="#e58e82"/></g><g><path d="m241.276 256c0-15.025 10.069-27.691 23.824-31.64-2.891-.83-5.942-1.284-9.1-1.284-18.184 0-32.925 14.741-32.925 32.925 0 18.184 14.741 32.925 32.925 32.925 3.158 0 6.209-.454 9.1-1.284-13.755-3.951-23.824-16.617-23.824-31.642z" fill="#e06c57"/></g><g><path d="m59.414 175.042c-18.184 0-32.925-14.741-32.925-32.925h11.692c0-18.184 3.048-32.925 21.232-32.925 18.184 0 32.925 14.741 32.925 32.925.001 18.184-14.74 32.925-32.924 32.925z" fill="#e58e82"/></g><g><path d="m44.691 142.117c0-15.025 10.069-27.691 23.824-31.64-2.891-.83-5.942-1.284-9.1-1.284-18.184 0-32.925 14.741-32.925 32.925 0 18.184 14.741 32.925 32.925 32.925 3.158 0 6.209-.454 9.1-1.284-13.756-3.951-23.824-16.616-23.824-31.642z" fill="#e06c57"/></g><g><path d="m256 512c-18.184 0-24.535-14.741-24.535-32.925 0-18.184 6.351-32.925 24.535-32.925 18.184 0 32.925 14.741 32.925 32.925 0 18.184-14.741 32.925-32.925 32.925z" fill="#e58e82"/></g><g><path d="m241.276 479.075c0-15.025 10.069-27.691 23.824-31.64-2.891-.83-5.942-1.284-9.1-1.284-18.184 0-32.925 14.741-32.925 32.925 0 18.183 14.741 32.924 32.925 32.924 3.158 0 6.209-.454 9.1-1.284-13.755-3.95-23.824-16.615-23.824-31.641z" fill="#e06c57"/></g></g></svg>